<?xml version="1.0" encoding="us-ascii" standalone="no"?><svg xmlns="http://www.w3.org/2000/svg" xmlns:xlink="http://www.w3.org/1999/xlink" contentStyleType="text/css" height="944px" preserveAspectRatio="none" style="width:6347px;height:944px;background:#FFFFFF;" version="1.1" viewBox="0 0 6347 944" width="6347px" zoomAndPan="magnify"><defs/><g><text fill="#000000" font-family="sans-serif" font-size="14" font-weight="bold" lengthAdjust="spacing" textLength="244" x="3044.5" y="23.5352">Whispers in the Dark Architecture</text><!--cluster Whispers in the Dark--><g id="cluster_Whispers in the Dark"><rect fill="none" height="893.93" rx="2.5" ry="2.5" style="stroke:#181818;stroke-width:1.0;" width="6334" x="7" y="44.4883"/><text fill="#000000" font-family="sans-serif" font-size="14" font-weight="bold" lengthAdjust="spacing" textLength="152" x="3098" y="60.0234">Whispers in the Dark</text></g><!--cluster User Interface--><g id="cluster_User Interface"><rect fill="#E8F0FE" height="253.98" rx="2.5" ry="2.5" style="stroke:#1A73E8;stroke-width:1.0;" width="1416" x="31" y="87.4883"/><text fill="#000000" font-family="sans-serif" font-size="14" font-style="italic" lengthAdjust="spacing" textLength="28" x="725" y="103.0234">&#171;UI&#187;</text><text fill="#000000" font-family="sans-serif" font-size="14" font-weight="bold" lengthAdjust="spacing" textLength="100" x="689" y="119.5117">User Interface</text></g><!--cluster Game Logic--><g id="cluster_Game Logic"><rect fill="#E6F4EA" height="255.98" rx="2.5" ry="2.5" style="stroke:#34A853;stroke-width:1.0;" width="1891" x="1471" y="237.9783"/><text fill="#000000" font-family="sans-serif" font-size="14" font-style="italic" lengthAdjust="spacing" textLength="50" x="2391.5" y="253.5134">&#171;Logic&#187;</text><text fill="#000000" font-family="sans-serif" font-size="14" font-weight="bold" lengthAdjust="spacing" textLength="83" x="2375" y="270.0017">Game Logic</text></g><!--cluster Story Script--><g id="cluster_Story Script"><rect fill="#FFF9C4" height="255.97" rx="2.5" ry="2.5" style="stroke:#FBC02D;stroke-width:1.0;" width="1236" x="3386" y="390.4683"/><text fill="#000000" font-family="sans-serif" font-size="14" font-style="italic" lengthAdjust="spacing" textLength="53" x="3977.5" y="406.0034">&#171;Script&#187;</text><text fill="#000000" font-family="sans-serif" font-size="14" font-weight="bold" lengthAdjust="spacing" textLength="83" x="3962.5" y="422.4917">Story Script</text></g><!--cluster Game Data--><g id="cluster_Game Data"><rect fill="#F5F5F5" height="255.97" rx="2.5" ry="2.5" style="stroke:#9E9E9E;stroke-width:1.0;" width="1671" x="4646" y="542.9583"/><text fill="#000000" font-family="sans-serif" font-size="14" font-style="italic" lengthAdjust="spacing" textLength="45" x="5459" y="558.4934">&#171;Data&#187;</text><text fill="#000000" font-family="sans-serif" font-size="14" font-weight="bold" lengthAdjust="spacing" textLength="78" x="5442.5" y="574.9817">Game Data</text></g><!--cluster Character Management--><g id="cluster_Character Management"><rect fill="#EDE7F6" height="218.98" rx="2.5" ry="2.5" style="stroke:#673AB7;stroke-width:1.0;" width="1000" x="1738" y="695.4383"/><text fill="#000000" font-family="sans-serif" font-size="14" font-style="italic" lengthAdjust="spacing" textLength="86" x="2195" y="710.9734">&#171;CharMgmt&#187;</text><text fill="#000000" font-family="sans-serif" font-size="14" font-weight="bold" lengthAdjust="spacing" textLength="165" x="2155.5" y="727.4617">Character Management</text></g><!--cluster Navigation Management--><g id="cluster_Navigation Management"><rect fill="#FFF3E0" height="255.97" rx="2.5" ry="2.5" style="stroke:#FB8C00;stroke-width:1.0;" width="1200" x="230" y="390.4683"/><text fill="#000000" font-family="sans-serif" font-size="14" font-style="italic" lengthAdjust="spacing" textLength="78" x="791" y="406.0034">&#171;NavMgmt&#187;</text><text fill="#000000" font-family="sans-serif" font-size="14" font-weight="bold" lengthAdjust="spacing" textLength="175" x="742.5" y="422.4917">Navigation Management</text></g><!--entity UI--><g id="elem_UI"><rect fill="#F1F1F1" height="36.4883" rx="2.5" ry="2.5" style="stroke:#181818;stroke-width:0.5;" width="115" x="874.5" y="138.4883"/><text fill="#000000" font-family="sans-serif" font-size="14" lengthAdjust="spacing" textLength="95" x="884.5" y="162.0234">User Interface</text></g><!--entity Display--><g id="elem_Display"><rect fill="#F1F1F1" height="36.4883" rx="2.5" ry="2.5" style="stroke:#181818;stroke-width:0.5;" width="162" x="47" y="288.9783"/><text fill="#000000" font-family="sans-serif" font-size="14" lengthAdjust="spacing" textLength="142" x="57" y="312.5134">Display Management</text></g><!--entity Input--><g id="elem_Input"><rect fill="#F1F1F1" height="36.4883" rx="2.5" ry="2.5" style="stroke:#181818;stroke-width:0.5;" width="122" x="384" y="288.9783"/><text fill="#000000" font-family="sans-serif" font-size="14" lengthAdjust="spacing" textLength="102" x="394" y="312.5134">Input Handling</text></g><!--entity Screens--><g id="elem_Screens"><rect fill="#F1F1F1" height="36.4883" rx="2.5" ry="2.5" style="stroke:#181818;stroke-width:0.5;" width="144" x="665" y="288.9783"/><text fill="#000000" font-family="sans-serif" font-size="14" lengthAdjust="spacing" textLength="124" x="675" y="312.5134">Screen Definitions</text></g><!--entity Styles--><g id="elem_Styles"><rect fill="#F1F1F1" height="36.4883" rx="2.5" ry="2.5" style="stroke:#181818;stroke-width:0.5;" width="87" x="1083.5" y="288.9783"/><text fill="#000000" font-family="sans-serif" font-size="14" lengthAdjust="spacing" textLength="67" x="1093.5" y="312.5134">GUI Styles</text></g><!--entity Logic--><g id="elem_Logic"><rect fill="#F1F1F1" height="36.4883" rx="2.5" ry="2.5" style="stroke:#181818;stroke-width:0.5;" width="99" x="2066.5" y="288.9783"/><text fill="#000000" font-family="sans-serif" font-size="14" lengthAdjust="spacing" textLength="79" x="2076.5" y="312.5134">Game Logic</text></g><!--entity Flow--><g id="elem_Flow"><rect fill="#F1F1F1" height="36.4883" rx="2.5" ry="2.5" style="stroke:#181818;stroke-width:0.5;" width="108" x="1517" y="441.4683"/><text fill="#000000" font-family="sans-serif" font-size="14" lengthAdjust="spacing" textLength="88" x="1527" y="465.0034">Flow Control</text></g><!--entity State--><g id="elem_State"><rect fill="#F1F1F1" height="36.4883" rx="2.5" ry="2.5" style="stroke:#181818;stroke-width:0.5;" width="147" x="2042.5" y="441.4683"/><text fill="#000000" font-family="sans-serif" font-size="14" lengthAdjust="spacing" textLength="127" x="2052.5" y="465.0034">State Management</text></g><!--entity Events--><g id="elem_Events"><rect fill="#F1F1F1" height="36.4883" rx="2.5" ry="2.5" style="stroke:#181818;stroke-width:0.5;" width="123" x="2458.5" y="441.4683"/><text fill="#000000" font-family="sans-serif" font-size="14" lengthAdjust="spacing" textLength="103" x="2468.5" y="465.0034">Event Handling</text></g><!--entity Vars--><g id="elem_Vars"><rect fill="#F1F1F1" height="36.4883" rx="2.5" ry="2.5" style="stroke:#181818;stroke-width:0.5;" width="169" x="2870.5" y="441.4683"/><text fill="#000000" font-family="sans-serif" font-size="14" lengthAdjust="spacing" textLength="149" x="2880.5" y="465.0034">Variable Management</text></g><!--entity Script--><g id="elem_Script"><rect fill="#F1F1F1" height="36.4883" rx="2.5" ry="2.5" style="stroke:#181818;stroke-width:0.5;" width="98" x="3709" y="441.4683"/><text fill="#000000" font-family="sans-serif" font-size="14" lengthAdjust="spacing" textLength="78" x="3719" y="465.0034">Story Script</text></g><!--entity Narrative--><g id="elem_Narrative"><rect fill="#F1F1F1" height="36.4883" rx="2.5" ry="2.5" style="stroke:#181818;stroke-width:0.5;" width="141" x="3401.5" y="593.9583"/><text fill="#000000" font-family="sans-serif" font-size="14" lengthAdjust="spacing" textLength="121" x="3411.5" y="617.4934">Narrative Content</text></g><!--entity Scenes--><g id="elem_Scenes"><rect fill="#F1F1F1" height="36.4883" rx="2.5" ry="2.5" style="stroke:#181818;stroke-width:0.5;" width="138" x="3689" y="593.9583"/><text fill="#000000" font-family="sans-serif" font-size="14" lengthAdjust="spacing" textLength="118" x="3699" y="617.4934">Scene Definitions</text></g><!--entity Dialogue--><g id="elem_Dialogue"><rect fill="#F1F1F1" height="36.4883" rx="2.5" ry="2.5" style="stroke:#181818;stroke-width:0.5;" width="147" x="4204.5" y="593.9583"/><text fill="#000000" font-family="sans-serif" font-size="14" lengthAdjust="spacing" textLength="127" x="4214.5" y="617.4934">Dialogue Handling</text></g><!--entity Data--><g id="elem_Data"><rect fill="#F1F1F1" height="36.4883" rx="2.5" ry="2.5" style="stroke:#181818;stroke-width:0.5;" width="94" x="4803" y="593.9583"/><text fill="#000000" font-family="sans-serif" font-size="14" lengthAdjust="spacing" textLength="74" x="4813" y="617.4934">Game Data</text></g><!--entity World--><g id="elem_World"><rect fill="#F1F1F1" height="36.4883" rx="2.5" ry="2.5" style="stroke:#181818;stroke-width:0.5;" width="98" x="4662" y="746.4383"/><text fill="#000000" font-family="sans-serif" font-size="14" lengthAdjust="spacing" textLength="78" x="4672" y="769.9734">World State</text></g><!--entity CharData--><g id="elem_CharData"><rect fill="#F1F1F1" height="36.4883" rx="2.5" ry="2.5" style="stroke:#181818;stroke-width:0.5;" width="122" x="5054" y="746.4383"/><text fill="#000000" font-family="sans-serif" font-size="14" lengthAdjust="spacing" textLength="102" x="5064" y="769.9734">Character Data</text></g><!--entity Inventory--><g id="elem_Inventory"><rect fill="#F1F1F1" height="36.4883" rx="2.5" ry="2.5" style="stroke:#181818;stroke-width:0.5;" width="177" x="5411.5" y="746.4383"/><text fill="#000000" font-family="sans-serif" font-size="14" lengthAdjust="spacing" textLength="157" x="5421.5" y="769.9734">Inventory Management</text></g><!--entity Flags--><g id="elem_Flags"><rect fill="#F1F1F1" height="36.4883" rx="2.5" ry="2.5" style="stroke:#181818;stroke-width:0.5;" width="153" x="5687.5" y="746.4383"/><text fill="#000000" font-family="sans-serif" font-size="14" lengthAdjust="spacing" textLength="133" x="5697.5" y="769.9734">Flags and Variables</text></g><!--entity CharMgr--><g id="elem_CharMgr"><rect fill="#F1F1F1" height="36.4883" rx="2.5" ry="2.5" style="stroke:#181818;stroke-width:0.5;" width="180" x="2033" y="746.4383"/><text fill="#000000" font-family="sans-serif" font-size="14" lengthAdjust="spacing" textLength="160" x="2043" y="769.9734">Character Management</text></g><!--entity CharDefs--><g id="elem_CharDefs"><rect fill="#F1F1F1" height="36.4883" rx="2.5" ry="2.5" style="stroke:#181818;stroke-width:0.5;" width="165" x="1754.5" y="861.9283"/><text fill="#000000" font-family="sans-serif" font-size="14" lengthAdjust="spacing" textLength="145" x="1764.5" y="885.4634">Character Definitions</text></g><!--entity CharAttrs--><g id="elem_CharAttrs"><rect fill="#F1F1F1" height="36.4883" rx="2.5" ry="2.5" style="stroke:#181818;stroke-width:0.5;" width="159" x="2043.5" y="861.9283"/><text fill="#000000" font-family="sans-serif" font-size="14" lengthAdjust="spacing" textLength="139" x="2053.5" y="885.4634">Character Attributes</text></g><!--entity CharSelect--><g id="elem_CharSelect"><rect fill="#F1F1F1" height="36.4883" rx="2.5" ry="2.5" style="stroke:#181818;stroke-width:0.5;" width="122" x="2289" y="861.9283"/><text fill="#000000" font-family="sans-serif" font-size="14" lengthAdjust="spacing" textLength="102" x="2299" y="885.4634">Selection Logic</text></g><!--entity NavMgr--><g id="elem_NavMgr"><rect fill="#F1F1F1" height="36.4883" rx="2.5" ry="2.5" style="stroke:#181818;stroke-width:0.5;" width="186" x="1071" y="441.4683"/><text fill="#000000" font-family="sans-serif" font-size="14" lengthAdjust="spacing" textLength="166" x="1081" y="465.0034">Navigation Management</text></g><!--entity Rooms--><g id="elem_Rooms"><rect fill="#F1F1F1" height="36.4883" rx="2.5" ry="2.5" style="stroke:#181818;stroke-width:0.5;" width="138" x="246" y="593.9583"/><text fill="#000000" font-family="sans-serif" font-size="14" lengthAdjust="spacing" textLength="118" x="256" y="617.4934">Room Definitions</text></g><!--entity Transitions--><g id="elem_Transitions"><rect fill="#F1F1F1" height="36.4883" rx="2.5" ry="2.5" style="stroke:#181818;stroke-width:0.5;" width="130" x="897" y="593.9583"/><text fill="#000000" font-family="sans-serif" font-size="14" lengthAdjust="spacing" textLength="110" x="907" y="617.4934">Transition Logic</text></g><!--entity NavMenu--><g id="elem_NavMenu"><rect fill="#F1F1F1" height="36.4883" rx="2.5" ry="2.5" style="stroke:#181818;stroke-width:0.5;" width="98" x="1115" y="593.9583"/><text fill="#000000" font-family="sans-serif" font-size="14" lengthAdjust="spacing" textLength="78" x="1125" y="617.4934">Menu Logic</text></g><!--link UI to Display--><g id="link_UI_Display"><path d="M874.25,158.9483 C693.31,163.0583 147.78,177.6483 122,204.9783 C100.98,227.2583 109.1222,260.4375 117.9022,282.9775 " fill="none" id="UI-to-Display" style="stroke:#666666;stroke-width:2.0;"/><polygon fill="#666666" points="120.08,288.5683,120.5405,278.7302,118.2652,283.9093,113.0861,281.6339,120.08,288.5683" style="stroke:#666666;stroke-width:2.0;"/><text fill="#5B9BD5" font-family="sans-serif" font-size="13" lengthAdjust="spacing" textLength="321" x="123" y="218.5466">Manages display of images, text, and GUI elements</text></g><!--link UI to Input--><g id="link_UI_Input"><path d="M874.2,159.7783 C755.89,164.5183 494.72,177.9283 465,204.9783 C441.81,226.0783 440.513,259.6565 442.303,282.5865 " fill="none" id="UI-to-Input" style="stroke:#666666;stroke-width:2.0;"/><polygon fill="#666666" points="442.77,288.5683,446.0574,279.2843,442.3809,283.5834,438.0817,279.9069,442.77,288.5683" style="stroke:#666666;stroke-width:2.0;"/><text fill="#5B9BD5" font-family="sans-serif" font-size="13" lengthAdjust="spacing" textLength="250" x="466" y="218.5466">Handles player input (mouse, keyboard)</text></g><!--link UI to Screens--><g id="link_UI_Screens"><path d="M874.28,163.6283 C822.22,170.2883 751.24,183.1283 734,204.9783 C715.15,228.8583 721.2954,260.9921 728.4554,283.0221 " fill="none" id="UI-to-Screens" style="stroke:#666666;stroke-width:2.0;"/><polygon fill="#666666" points="730.31,288.7283,731.3323,278.9326,728.7645,283.9731,723.724,281.4054,730.31,288.7283" style="stroke:#666666;stroke-width:2.0;"/><text fill="#5B9BD5" font-family="sans-serif" font-size="13" lengthAdjust="spacing" textLength="348" x="735" y="218.5466">Defines screen layouts (character selection, navigation)</text></g><!--link UI to Styles--><g id="link_UI_Styles"><path d="M989.72,162.7983 C1022.16,168.4183 1061.36,180.2283 1088,204.9783 C1112.01,227.2883 1120.4665,260.1113 1124.0165,282.6513 " fill="none" id="UI-to-Styles" style="stroke:#666666;stroke-width:2.0;"/><polygon fill="#666666" points="1124.95,288.5783,1127.5011,279.0656,1124.1721,283.6392,1119.5985,280.3102,1124.95,288.5783" style="stroke:#666666;stroke-width:2.0;"/><text fill="#5B9BD5" font-family="sans-serif" font-size="13" lengthAdjust="spacing" textLength="302" x="1102.05" y="218.5466">Applies fonts, colors, and styles to GUI (gui.rpy)</text></g><!--link Logic to Flow--><g id="link_Logic_Flow"><path d="M2066.09,308.8083 C1934.43,310.8683 1585.47,319.8583 1551,357.4683 C1529.93,380.4483 1543.7324,413.7665 1556.6624,436.0865 " fill="none" id="Logic-to-Flow" style="stroke:#666666;stroke-width:2.0;"/><polygon fill="#666666" points="1559.67,441.2783,1558.6198,431.4856,1557.1637,436.9518,1551.6974,435.4957,1559.67,441.2783" style="stroke:#666666;stroke-width:2.0;"/><text fill="#5B9BD5" font-family="sans-serif" font-size="13" lengthAdjust="spacing" textLength="552" x="1552" y="371.0366">Controls game flow using labels and jumps (script.rpy, `Basement.rpy, `First_Floor.rpy)</text></g><!--link Logic to State--><g id="link_Logic_State"><path d="M2114.69,325.5283 C2114.04,334.9683 2113.32,346.8483 2113,357.4683 C2112.11,386.8183 2113.3099,414.9685 2114.4899,435.1585 " fill="none" id="Logic-to-State" style="stroke:#666666;stroke-width:2.0;"/><polygon fill="#666666" points="2114.84,441.1483,2118.3081,431.9302,2114.5483,436.1568,2110.3217,432.397,2114.84,441.1483" style="stroke:#666666;stroke-width:2.0;"/><text fill="#5B9BD5" font-family="sans-serif" font-size="13" lengthAdjust="spacing" textLength="362" x="2114" y="371.0366">Manages game state (e.g., current_room, inventory, flags)</text></g><!--link Logic to Events--><g id="link_Logic_Events"><path d="M2165.72,308.8183 C2253.96,310.8583 2433.15,319.6583 2481,357.4683 C2507.01,378.0183 2514.9448,412.2047 2517.8348,435.2947 " fill="none" id="Logic-to-Events" style="stroke:#666666;stroke-width:2.0;"/><polygon fill="#666666" points="2518.58,441.2483,2521.4313,431.8212,2517.959,436.287,2513.4932,432.8147,2518.58,441.2483" style="stroke:#666666;stroke-width:2.0;"/><text fill="#5B9BD5" font-family="sans-serif" font-size="13" lengthAdjust="spacing" textLength="393" x="2495.83" y="371.0366">Handles game events (e.g., door attempts, character selection)</text></g><!--link Logic to Vars--><g id="link_Logic_Vars"><path d="M2165.83,308.6283 C2328.36,310.3083 2836.18,318.6683 2898,357.4683 C2928.24,376.4483 2942.2475,411.8132 2949.0475,435.3932 " fill="none" id="Logic-to-Vars" style="stroke:#666666;stroke-width:2.0;"/><polygon fill="#666666" points="2950.71,441.1583,2952.0596,431.4023,2949.3246,436.3541,2944.3728,433.619,2950.71,441.1583" style="stroke:#666666;stroke-width:2.0;"/><text fill="#5B9BD5" font-family="sans-serif" font-size="13" lengthAdjust="spacing" textLength="389" x="2917.72" y="371.0366">Manages variables (game flags, character stats) (variables.rpy)</text></g><!--link Script to Narrative--><g id="link_Script_Narrative"><path d="M3708.64,461.6483 C3633.65,464.2283 3496.5,473.8883 3466,509.9583 C3446.33,533.2183 3453.8869,565.659 3462.2069,587.889 " fill="none" id="Script-to-Narrative" style="stroke:#666666;stroke-width:2.0;"/><polygon fill="#666666" points="3464.31,593.5083,3464.9015,583.6772,3462.5574,588.8255,3457.4091,586.4814,3464.31,593.5083" style="stroke:#666666;stroke-width:2.0;"/><text fill="#5B9BD5" font-family="sans-serif" font-size="13" lengthAdjust="spacing" textLength="279" x="3467" y="523.5266">Contains story text, descriptions (script.rpy)</text></g><!--link Script to Scenes--><g id="link_Script_Scenes"><path d="M3756.69,478.0183 C3756.04,487.4483 3755.32,499.3383 3755,509.9583 C3754.11,539.3083 3755.3099,567.4585 3756.4899,587.6485 " fill="none" id="Script-to-Scenes" style="stroke:#666666;stroke-width:2.0;"/><polygon fill="#666666" points="3756.84,593.6383,3760.3081,584.4202,3756.5483,588.6468,3752.3217,584.887,3756.84,593.6383" style="stroke:#666666;stroke-width:2.0;"/><text fill="#5B9BD5" font-family="sans-serif" font-size="13" lengthAdjust="spacing" textLength="478" x="3756" y="523.5266">Defines scenes, backgrounds (e.g., haunted house) (script.rpy, `images.rpy)</text></g><!--link Script to Dialogue--><g id="link_Script_Dialogue"><path d="M3807.39,462.8583 C3923.23,468.3183 4205.19,484.1183 4239,509.9583 C4265.34,530.0883 4273.1893,564.4305 4275.9593,587.6505 " fill="none" id="Script-to-Dialogue" style="stroke:#666666;stroke-width:2.0;"/><polygon fill="#666666" points="4276.67,593.6083,4279.5758,584.1978,4276.0777,588.6435,4271.6321,585.1455,4276.67,593.6083" style="stroke:#666666;stroke-width:2.0;"/><text fill="#5B9BD5" font-family="sans-serif" font-size="13" lengthAdjust="spacing" textLength="326" x="4255.65" y="523.5266">Handles character dialogue, interactions (script.rpy)</text></g><!--link Data to World--><g id="link_Data_World"><path d="M4802.66,614.0683 C4766.45,617.5283 4718.68,628.7683 4694,662.4383 C4675.88,687.1683 4687.0575,719.0215 4698.1375,740.7815 " fill="none" id="Data-to-World" style="stroke:#666666;stroke-width:2.0;"/><polygon fill="#666666" points="4700.86,746.1283,4700.3407,736.2931,4698.5912,741.6726,4693.2117,739.9232,4700.86,746.1283" style="stroke:#666666;stroke-width:2.0;"/><text fill="#5B9BD5" font-family="sans-serif" font-size="13" lengthAdjust="spacing" textLength="376" x="4695" y="676.0066">Stores room data, locations (Basement.rpy, `First_Floor.rpy)</text></g><!--link Data to CharData--><g id="link_Data_CharData"><path d="M4897.3,618.2083 C4955.42,625.2483 5049.59,639.7983 5076,662.4383 C5101.02,683.8983 5109.2239,717.3868 5112.4339,740.1968 " fill="none" id="Data-to-CharData" style="stroke:#666666;stroke-width:2.0;"/><polygon fill="#666666" points="5113.27,746.1383,5115.9768,736.6687,5112.5732,741.1871,5108.0548,737.7835,5113.27,746.1383" style="stroke:#666666;stroke-width:2.0;"/><text fill="#5B9BD5" font-family="sans-serif" font-size="13" lengthAdjust="spacing" textLength="343" x="5090.45" y="676.0066">Stores character definitions, attributes (characters.rpy)</text></g><!--link Data to Inventory--><g id="link_Data_Inventory"><path d="M4897.46,614.6283 C5029.85,618.9583 5396.48,633.4783 5442,662.4383 C5472.25,681.6883 5486.6685,716.9735 5493.7485,740.4635 " fill="none" id="Data-to-Inventory" style="stroke:#666666;stroke-width:2.0;"/><polygon fill="#666666" points="5495.48,746.2083,5496.7126,736.4369,5494.0371,741.421,5489.0529,738.7455,5495.48,746.2083" style="stroke:#666666;stroke-width:2.0;"/><text fill="#5B9BD5" font-family="sans-serif" font-size="13" lengthAdjust="spacing" textLength="222" x="5461.8" y="676.0066">Manages items, player possessions</text></g><!--link Data to Flags--><g id="link_Data_Flags"><path d="M4897.32,613.5783 C5064.84,615.2383 5623.46,623.6583 5693,662.4383 C5726.19,680.9483 5745.0999,716.735 5755.0499,740.465 " fill="none" id="Data-to-Flags" style="stroke:#666666;stroke-width:2.0;"/><polygon fill="#666666" points="5757.37,745.9983,5757.5787,736.1516,5755.4366,741.3872,5750.201,739.2451,5757.37,745.9983" style="stroke:#666666;stroke-width:2.0;"/><text fill="#5B9BD5" font-family="sans-serif" font-size="13" lengthAdjust="spacing" textLength="535" x="5715.13" y="676.0066">Stores game flags (e.g., `wall_broken`, `found_hammer`, `try_door`) (variables.rpy)</text></g><!--link CharMgr to CharDefs--><g id="link_CharMgr_CharDefs"><path d="M2032.54,767.7583 C1952.79,771.7183 1845.17,783.0283 1818,814.9283 C1806.84,828.0383 1811.7416,842.3756 1820.5616,856.4356 " fill="none" id="CharMgr-to-CharDefs" style="stroke:#666666;stroke-width:2.0;"/><polygon fill="#666666" points="1823.75,861.5183,1822.3558,851.7686,1821.093,857.2827,1815.5789,856.0199,1823.75,861.5183" style="stroke:#666666;stroke-width:2.0;"/><text fill="#5B9BD5" font-family="sans-serif" font-size="13" lengthAdjust="spacing" textLength="292" x="1819" y="828.4966">Defines characters (name, bio) (characters.rpy)</text></g><!--link CharMgr to CharAttrs--><g id="link_CharMgr_CharAttrs"><path d="M2121.46,783.3983 C2120.48,796.7383 2119.48,815.4783 2120,831.9283 C2120.31,841.7883 2120.5663,846.8033 2121.1963,855.7033 " fill="none" id="CharMgr-to-CharAttrs" style="stroke:#666666;stroke-width:2.0;"/><polygon fill="#666666" points="2121.62,861.6883,2124.9745,852.4283,2121.267,856.7008,2116.9945,852.9932,2121.62,861.6883" style="stroke:#666666;stroke-width:2.0;"/><text fill="#5B9BD5" font-family="sans-serif" font-size="13" lengthAdjust="spacing" textLength="185" x="2121" y="828.4966">Manages character properties</text></g><!--link CharMgr to CharSelect--><g id="link_CharMgr_CharSelect"><path d="M2213.38,774.9683 C2246.57,781.8983 2282.87,793.9583 2311,814.9283 C2326.79,826.7083 2335.2067,841.4063 2341.3467,856.0263 " fill="none" id="CharMgr-to-CharSelect" style="stroke:#666666;stroke-width:2.0;"/><polygon fill="#666666" points="2343.67,861.5583,2343.8731,851.7115,2341.7339,856.9483,2336.4971,854.8092,2343.67,861.5583" style="stroke:#666666;stroke-width:2.0;"/><text fill="#5B9BD5" font-family="sans-serif" font-size="13" lengthAdjust="spacing" textLength="370" x="2327.58" y="828.4966">Handles character selection and confirmation (screens.rpy)</text></g><!--link NavMgr to Rooms--><g id="link_NavMgr_Rooms"><path d="M1070.63,459.8583 C865.02,458.8783 387.06,461.8683 333,509.9583 C309.52,530.8383 309.1762,564.8929 311.6562,587.8729 " fill="none" id="NavMgr-to-Rooms" style="stroke:#666666;stroke-width:2.0;"/><polygon fill="#666666" points="312.3,593.8383,315.3112,584.4611,311.7635,588.8671,307.3574,585.3194,312.3,593.8383" style="stroke:#666666;stroke-width:2.0;"/><text fill="#5B9BD5" font-family="sans-serif" font-size="13" lengthAdjust="spacing" textLength="639" x="334" y="523.5266">Defines rooms, locations (e.g., `BS_Stage_1`, `BS_Private_Bedroom`) (Basement.rpy, `First_Floor.rpy)</text></g><!--link NavMgr to Transitions--><g id="link_NavMgr_Transitions"><path d="M1070.76,470.6683 C1043.08,477.7783 1014.67,489.7783 994,509.9583 C971.05,532.3583 964.9962,565.098 963.1662,587.608 " fill="none" id="NavMgr-to-Transitions" style="stroke:#666666;stroke-width:2.0;"/><polygon fill="#666666" points="962.68,593.5883,967.3961,584.942,963.0851,588.6047,959.4224,584.2938,962.68,593.5883" style="stroke:#666666;stroke-width:2.0;"/><text fill="#5B9BD5" font-family="sans-serif" font-size="13" lengthAdjust="spacing" textLength="160" x="995" y="523.5266">Handles room transitions</text></g><!--link NavMgr to NavMenu--><g id="link_NavMgr_NavMenu"><path d="M1164,478.2683 C1164,507.2683 1164,558.8283 1164,587.7483 " fill="none" id="NavMgr-to-NavMenu" style="stroke:#666666;stroke-width:2.0;"/><polygon fill="#666666" points="1164,593.7483,1168,584.7483,1164,588.7483,1160,584.7483,1164,593.7483" style="stroke:#666666;stroke-width:2.0;"/><text fill="#5B9BD5" font-family="sans-serif" font-size="13" lengthAdjust="spacing" textLength="248" x="1165" y="523.5266">Manages navigation menu (screens.rpy)</text></g><!--link UI to Logic--><g id="link_UI_Logic"><path d="M989.93,161.9483 C1085.23,169.1383 1280.98,184.9383 1446,204.9783 C1678.69,233.2283 1949.1244,277.8356 2060.2144,296.6656 " fill="none" id="UI-to-Logic" style="stroke:#1F77B4;stroke-width:2.0;"/><polygon fill="#1F77B4" points="2066.13,297.6683,2057.925,292.2205,2061.2003,296.8327,2056.5881,300.108,2066.13,297.6683" style="stroke:#1F77B4;stroke-width:2.0;"/><text fill="#5B9BD5" font-family="sans-serif" font-size="13" lengthAdjust="spacing" textLength="172" x="1575.59" y="218.5466">User input, display updates</text></g><!--link Logic to Script--><g id="link_Logic_Script"><path d="M2165.68,309.0383 C2362.54,312.4683 3088.15,326.9583 3316,357.4683 C3460.55,376.8183 3621.5781,419.5395 3702.7281,442.5795 " fill="none" id="Logic-to-Script" style="stroke:#2CA02C;stroke-width:2.0;"/><polygon fill="#2CA02C" points="3708.5,444.2183,3700.9347,437.9123,3703.6901,442.8527,3698.7497,445.6081,3708.5,444.2183" style="stroke:#2CA02C;stroke-width:2.0;"/><text fill="#5B9BD5" font-family="sans-serif" font-size="13" lengthAdjust="spacing" textLength="194" x="3414.98" y="371.0366">Flow control, scene transitions</text></g><!--link Logic to Data--><g id="link_Logic_Data"><path d="M2165.81,308.2183 C2497.23,308.4283 4377.9,312.6983 4622,382.4683 C4730.29,413.4183 4780.59,414.8983 4841,509.9583 C4857.19,535.4183 4856.5127,566.0857 4853.7927,587.5957 " fill="none" id="Logic-to-Data" style="stroke:#FF7F0E;stroke-width:2.0;"/><polygon fill="#FF7F0E" points="4853.04,593.5483,4858.1375,585.1212,4853.6673,588.5878,4850.2007,584.1176,4853.04,593.5483" style="stroke:#FF7F0E;stroke-width:2.0;"/><text fill="#5B9BD5" font-family="sans-serif" font-size="13" lengthAdjust="spacing" textLength="166" x="4835.99" y="464.7766">State updates, data access</text></g><!--link Logic to CharMgr--><g id="link_Logic_CharMgr"><path d="M2066.15,308.9783 C1943.68,311.3983 1630.95,321.0583 1534,357.4683 C1516.44,364.0583 1508.47,365.7283 1500,382.4683 C1385.01,609.7483 1828.15,714.0327 2026.87,748.8527 " fill="none" id="Logic-to-CharMgr" style="stroke:#9467BD;stroke-width:2.0;"/><polygon fill="#9467BD" points="2032.78,749.8883,2024.6054,744.395,2027.855,749.0253,2023.2247,752.2749,2032.78,749.8883" style="stroke:#9467BD;stroke-width:2.0;"/><text fill="#5B9BD5" font-family="sans-serif" font-size="13" lengthAdjust="spacing" textLength="179" x="1502.9" y="523.5266">Character selection, updates</text></g><!--link Logic to NavMgr--><g id="link_Logic_NavMgr"><path d="M2066.06,311.2083 C1900.48,321.1583 1379.01,352.7783 1362,357.4683 C1295.93,375.6783 1231.3143,414.0285 1194.8243,437.8485 " fill="none" id="Logic-to-NavMgr" style="stroke:#D62728;stroke-width:2.0;"/><polygon fill="#D62728" points="1189.8,441.1283,1199.5229,439.5582,1193.9869,438.3952,1195.1499,432.8591,1189.8,441.1283" style="stroke:#D62728;stroke-width:2.0;"/><text fill="#5B9BD5" font-family="sans-serif" font-size="13" lengthAdjust="spacing" textLength="108" x="1363" y="371.0366">Room transitions</text></g><!--link Script to Data--><g id="link_Script_Data"><path d="M3807.31,461.5983 C3962.59,464.7383 4440.12,476.8683 4591,509.9583 C4612.87,514.7483 4733.4859,563.4885 4801.3159,591.2085 " fill="none" id="Script-to-Data" style="stroke:#8C564B;stroke-width:2.0;"/><polygon fill="#8C564B" points="4806.87,593.4783,4800.052,586.3709,4802.2416,591.5868,4797.0257,593.7763,4806.87,593.4783" style="stroke:#8C564B;stroke-width:2.0;"/><text fill="#5B9BD5" font-family="sans-serif" font-size="13" lengthAdjust="spacing" textLength="196" x="4636.21" y="523.5266">Scene settings, variable setting</text></g><!--link Data to CharMgr--><g id="link_Data_CharMgr"><path d="M4802.68,623.6883 C4756.75,633.4183 4684.96,647.3983 4622,654.4383 C4500.11,668.0683 2652.8252,742.4984 2219.2452,759.8484 " fill="none" id="Data-to-CharMgr" style="stroke:#E377C2;stroke-width:2.0;"/><polygon fill="#E377C2" points="2213.25,760.0883,2222.4027,763.7252,2218.246,759.8884,2222.0829,755.7316,2213.25,760.0883" style="stroke:#E377C2;stroke-width:2.0;"/><text fill="#5B9BD5" font-family="sans-serif" font-size="13" lengthAdjust="spacing" textLength="180" x="4485.18" y="676.0066">Provides character attributes</text></g><!--link NavMgr to UI--><g id="link_NavMgr_UI"><path d="M1167.9,441.0183 C1178.77,396.4883 1213.91,279.7783 1293,229.9783 C1315.62,215.7383 1394.74,241.4883 1413,221.9783 C1418.16,216.4583 1418.07,210.5783 1413,204.9783 C1385.03,174.1283 1117.2374,162.8949 995.6574,159.3149 " fill="none" id="NavMgr-to-UI" style="stroke:#17BECF;stroke-width:2.0;"/><polygon fill="#17BECF" points="989.66,159.1383,998.5384,163.4014,994.6578,159.2854,998.7738,155.4049,989.66,159.1383" style="stroke:#17BECF;stroke-width:2.0;"/><text fill="#5B9BD5" font-family="sans-serif" font-size="13" lengthAdjust="spacing" textLength="176" x="1294" y="312.2866">Displays navigation options</text></g><!--SRC=[ZLZRRjiu47ttLn3jGsD0AH8diHEZAE1hry2cA9fc-s0K3YrHCZUIA92Kiy6Y_xup97Mrx8tp8isGSpqy74Lp7JFoSyTLngGYF2LwnyYSocSoaVwEQ-RhNB8U_3wGBx7OqfWe_Gfx5DEQfv4YeP0ae_upZPWYD0s8Bv9Cf2pLggUUUPfHIPDYnOFPAy4gJQEOrHQKkzfBQfwfbEAbz5pRF475JCGGolkRwTrqVjDM_jXn_pbbIf51MxKKgMxk1OyFcaacz6l6pg4qFW-vRn87nusCnuSvVlhqkFhycVpR8_2RWYoI8ay3vs9nkxnOBgnEo8199x-aeojsQ-HLGDiOjlT-T_duKqJSF-5ckBnUJ0xTN5rFRc-ktkxcmPSyqyVzB9VBkzdreP_bT7OncB_TpvngUiBB3VuTUhbRuD_RlSnsLDv7oOby5lF5Q3ayz3GSNKscexTx-ahtfnr1uQuM5rs5kvrTN1nnr7FsoRkk8_iEVC763-HHCKbMAK0uf3uZtzmcq9NxcqlUaGPerqtjBq8LULnPrHpynlILtDCK32LmO8tQYUsQLPhbclm1P83dnUYDo6e1KeobPCv2ddBDHQhC2YjMTisNnnKnHE1qvh5dTA0vNxyVcj-lyy-5Pp9s8IaIE8a82KzGuX7D_j6UOIUqp68JkEgqPuCVs_316fg2Qd0ZFaj4hfX7djdhLb0Pz3jDk5J0Y4aIZ2YRCvWIkLRap0SWKX_g2smM0zL15JoIqZsFA3uVCMkg05OdMHPpXjGBINX0dO0HPTDJTeqM9j6pAESVPVRQnzBzjk3uGXD637jq0gDI8oYQBBEkbAOjvibgbZ4mympYaI8sEXIuVckgMHilHcZrYpq8csWn8WU5lwZaT1iVM02vmdi95zbq6iKo0OsBa1I9CFGGXRb24e_fbiNsmlexJpBeYJ9KX-NooDEKAkFAlIwvL7e3DeMqzJpYrUPQGT5uLKPunZv67w5PkPHWToE5I3n05MOg9FW8OngfeuPjHMgmD9QPbJhJ0KH7gDOioGmi3Z5sr3mMinRstjKSJBkwGMmDYv2IwfEpSc4RPG-O5B6tHoVEwWiGQQsBPbtN5_m0ZrRv5IO1E2XxPlfR8AAK5Zp3KjP1Co1L1PVHM4GvQuAla3fikHmQvQhyMuHH3gTTcOWjqmJCeWdTrf7LFshInjMW31HuP5lU76MZTpI7h0EoGpBgjv1hAU-qipBn2azLRmEdH7J2E_KxicZH2TxUnza4jTZYnXs_BbMswF1WvJ-5Z0Dxa8p6l5lLh8ont8UYQk-gE4vjiYWL1Li1ditPBzX5ET82kMsxIQbHD1lOs40R2eO7c0ImoYEnyAahqbjuuz1qaKLblTQE2i0Udcx9jxbczJj4dJ9TbQGwtZ3M9s3CtMoPK0e6OtHmn8OjLnbRHGa589zUQ1nljb8yi_G9NaE4wsP7auH9VDVoTOFiz7IACghkLith15NNGiJNmNItxbfPmkO-aWUmQf65wGiBLNlTf6n3kGn5Rjr3GRUrgnANMBcZ5HT11mx0Nuq6gYwJinGA3uJ0HR-x-qTjck1g0AZGbKa1OwJcZXAFMh2nT_95URkuhxyqv38nvy5m1av2xLP_BIUT_-jrvqfiTdl0NdUkTFV2lkprTporxJQZqFNkXwIfugtcLKAtwfwbUKsF3a1Y6skzDIje7DIQYjoX6hpXpj7qOGFC5x7DvPDz-oRv7fXmCsK1Ri83z1QAwGgYbaMjZuR6T2l1hkqkoHgAgdcL9AWvrctp8N5Uj7JLk5HUkDx1J0HtP-8-x-qqsqSKs07uCXoDjjSOWXrSnlRxnWpaNZdivnbmiK5nETuCV7enyDr0ZdVWs4w5lfq9FNl5jf8lTuVXABnWvhOic1d7EEV7CzHFgEy3TTQttLqFHzkWE3POnN6DsMhJVaV0mN0m6jmMnJPRln-sfxhGR_sRuVMs7g99gFW7YLVESOMeLx4xkngD_44ppczIx7dGEDpLXTEhm-9oj6L-YBkXH-FY6wm12M6ddnv-jlu7]--></g></svg>